<svg xmlns="http://www.w3.org/2000/svg" viewBox="3 3 14 14" fill="#ff6771"><path fill-rule="evenodd" clip-rule="evenodd" d="M12.522 11.121a3.64 3.64 0 00.032-.5l.001-1.724v-.432H7.577a3914.548 3914.548 0 000 2.225c.001 1.083.656 1.985 1.702 2.35 1.43.5 3.044-.454 3.243-1.919zm2.981-7.096v.178a860.597 860.597 0 01-.005 2.866h.825v1.446h-.825c0 .725.003 1.449.01 2.173.022 2.295-1.451 4.179-3.416 4.902-2.075.763-4.02.466-5.74-.929-1.195-.967-1.839-2.25-1.852-3.796-.007-.783-.009-1.566-.01-2.35h-.815V7.07h.816l.001-.894.002-2.055c0-.018.002-.036.004-.056l.003-.035h3.05v3.04h4.892V4.025h3.06z"/></svg>